<svg id="Layer_1" data-name="Layer 1" xmlns="http://www.w3.org/2000/svg" viewBox="0 0 75 75"><defs><style>.cls-1{fill:#e5261d;}</style></defs><path class="cls-1" d="M29.65.59H7.3V54.05Z"/><path class="cls-1" d="M45.38.59H67.7V54.05Z"/><path class="cls-1" d="M37.51,20.29,51.74,54.05H42.41L38.16,43.3H27.74Z"/><path class="cls-1" d="M16.35,70.4l1.27,3.66a.22.22,0,0,0,.22.13H20.3c.13,0,.15-.06.13-.2L15.36,59.91c0-.12,0-.14-.16-.14h-3a.14.14,0,0,0-.14.16,3.27,3.27,0,0,1-.19,1.18L7.3,74c0,.16,0,.22.16.22H9.65A.22.22,0,0,0,9.9,74l1.21-3.61ZM11.8,68c.67-2,1.54-4.57,1.89-6h0c.43,1.53,1.46,4.58,1.93,6Z"/><path class="cls-1" d="M27,74.41a10.48,10.48,0,0,0,4.15-.85.18.18,0,0,0,.13-.2c0-.4-.09-1-.09-1.41V58.69c0-.08,0-.12-.11-.12H28.64c-.09,0-.13,0-.13.15v4.5a6.65,6.65,0,0,0-1-.07c-3.85,0-6.22,2.55-6.22,5.73C21.34,72.57,23.77,74.41,27,74.41ZM28.51,72a4.13,4.13,0,0,1-1.28.18c-1.75,0-3.18-1-3.18-3.38a3.22,3.22,0,0,1,3.43-3.38,2.94,2.94,0,0,1,1,.15Z"/><path class="cls-1" d="M38.86,63.15c-3.29,0-5.33,2.53-5.33,5.64,0,2.79,1.62,5.62,5.28,5.62,3.1,0,5.27-2.28,5.27-5.69C44.08,65.72,42.24,63.15,38.86,63.15Zm-.13,2.22c1.86,0,2.65,1.6,2.65,3.42,0,2.26-1.16,3.38-2.52,3.38-1.67,0-2.66-1.4-2.66-3.42S37.25,65.37,38.73,65.37Z"/><path class="cls-1" d="M46.55,58.57a.13.13,0,0,0-.15.15v15a.22.22,0,0,0,.15.2,11.24,11.24,0,0,0,3.29.48c3.25,0,6.41-2,6.41-6.08a5,5,0,0,0-5.18-5.18,6.25,6.25,0,0,0-2,.31l0-4.72c0-.15,0-.17-.2-.17Zm7,10a3.31,3.31,0,0,1-3.46,3.57,3.52,3.52,0,0,1-1-.11v-6.4a3.76,3.76,0,0,1,1.53-.25C52.34,65.41,53.55,66.51,53.55,68.6Z"/><path class="cls-1" d="M65.18,69.39a15.71,15.71,0,0,0,2.25-.09c.12,0,.16-.07.18-.16a6.94,6.94,0,0,0,.09-1.35,4.37,4.37,0,0,0-4.5-4.64c-3.31,0-5.16,2.7-5.16,5.75,0,2.7,1.43,5.51,5.42,5.51a7.25,7.25,0,0,0,3.3-.64.23.23,0,0,0,.12-.24V71.71c0-.11-.06-.13-.12-.09a6.82,6.82,0,0,1-2.73.53c-2.23,0-3.25-1.23-3.31-2.76ZM60.72,67.5a2.39,2.39,0,0,1,2.37-2.24,2,2,0,0,1,2.11,2v.18a12,12,0,0,1-1.21,0Z"/></svg>