<svg id="Layer_1" data-name="Layer 1" xmlns="http://www.w3.org/2000/svg" viewBox="0 0 75 75"><defs><style>.cls-1{fill:#f4991a;}.cls-2{fill:#010101;fill-rule:evenodd;}</style></defs><g id="amazon"><path id="path1483" class="cls-1" d="M64.77,61.58C34,76.22,14.93,64,2.71,56.54c-.76-.47-2,.1-.93,1.39,4.07,4.93,17.41,16.83,34.83,16.83S64.4,65.25,65.69,63.59s.38-2.55-.92-2Zm8.64-4.77c-.83-1.07-5-1.27-7.67-1s-6.61,1.93-6.27,2.9c.18.37.54.2,2.36,0s6.93-.83,8,.56-1.63,8.07-2.12,9.15.18,1.35,1.07.64A13.94,13.94,0,0,0,72.32,64c1.07-2.64,1.71-6.32,1.09-7.14Z"/><path id="path1485" class="cls-2" d="M44.09,31.72c0,3.84.1,7-1.84,10.45-1.57,2.77-4,4.48-6.83,4.48-3.78,0-6-2.89-6-7.14,0-8.4,7.53-9.93,14.66-9.93Zm9.94,24A2,2,0,0,1,51.7,56c-3.27-2.72-3.85-4-5.65-6.57-5.41,5.52-9.24,7.17-16.25,7.17C21.5,56.58,15,51.46,15,41.21A16.75,16.75,0,0,1,25.55,25.1c5.35-2.35,12.83-2.77,18.54-3.42V20.4c0-2.34.18-5.11-1.19-7.14a6.61,6.61,0,0,0-5.53-2.56c-3.76,0-7.12,1.92-7.94,5.92a2.05,2.05,0,0,1-1.7,1.8l-9.57-1a1.75,1.75,0,0,1-1.47-2.06C18.9,3.74,29.37.24,38.74.24c4.8,0,11.06,1.28,14.85,4.91,4.79,4.48,4.34,10.45,4.34,17V37.47c0,4.62,1.91,6.64,3.71,9.14a1.85,1.85,0,0,1,0,2.62c-2,1.68-5.59,4.79-7.56,6.54l0,0"/><path id="path1487" class="cls-1" d="M64.77,61.58C34,76.22,14.93,64,2.71,56.54c-.76-.47-2,.1-.93,1.39,4.07,4.93,17.41,16.83,34.83,16.83S64.4,65.25,65.69,63.59s.38-2.55-.92-2Zm8.64-4.77c-.83-1.07-5-1.27-7.67-1s-6.61,1.93-6.27,2.9c.18.37.54.2,2.36,0s6.93-.83,8,.56-1.63,8.07-2.12,9.15.18,1.35,1.07.64A13.94,13.94,0,0,0,72.32,64c1.07-2.64,1.71-6.32,1.09-7.14Z"/><path id="path1489" class="cls-2" d="M44.09,31.72c0,3.84.1,7-1.84,10.45-1.57,2.77-4,4.48-6.83,4.48-3.78,0-6-2.89-6-7.14,0-8.4,7.53-9.93,14.66-9.93Zm9.94,24A2,2,0,0,1,51.7,56c-3.27-2.72-3.85-4-5.65-6.57-5.41,5.52-9.24,7.17-16.25,7.17C21.5,56.58,15,51.46,15,41.21A16.75,16.75,0,0,1,25.55,25.1c5.35-2.35,12.83-2.77,18.54-3.42V20.4c0-2.34.18-5.11-1.19-7.14a6.61,6.61,0,0,0-5.53-2.56c-3.76,0-7.12,1.92-7.94,5.92a2.05,2.05,0,0,1-1.7,1.8l-9.57-1a1.75,1.75,0,0,1-1.47-2.06C18.9,3.74,29.37.24,38.74.24c4.8,0,11.06,1.28,14.85,4.91,4.79,4.48,4.34,10.45,4.34,17V37.47c0,4.62,1.91,6.64,3.71,9.14a1.85,1.85,0,0,1,0,2.62c-2,1.68-5.59,4.79-7.56,6.54l0,0"/></g></svg>