<svg id="Layer_1" data-name="Layer 1" xmlns="http://www.w3.org/2000/svg" viewBox="0 0 75 75"><defs><style>.cls-1{fill:#010101;}</style></defs><path id="aapple" class="cls-1" d="M65.68,25.74c-.43.33-8,4.6-8,14.09,0,11,9.64,14.86,9.93,15a39,39,0,0,1-5.08,10.5c-3.17,4.55-6.48,9.1-11.51,9.1s-6.32-2.92-12.13-2.92c-5.65,0-7.67,3-12.27,3s-7.81-4.22-11.5-9.4A45.33,45.33,0,0,1,7.39,40.6c0-14.38,9.35-22,18.55-22,4.89,0,9,3.21,12,3.21s7.47-3.4,13-3.4a17.42,17.42,0,0,1,14.66,7.34ZM48.38,12.31A16.5,16.5,0,0,0,52.3,2,6.86,6.86,0,0,0,52.16.52C48.42.66,44,3,41.28,6.13a16.12,16.12,0,0,0-4.07,10,6.42,6.42,0,0,0,.14,1.34,6.21,6.21,0,0,0,1,.1C41.71,17.59,45.94,15.34,48.38,12.31Z"/></svg>