<svg id="Layer_1" data-name="Layer 1" xmlns="http://www.w3.org/2000/svg" viewBox="0 0 75 75"><defs><style>.cls-1{fill:#324697;}.cls-2{fill:#fff;}</style></defs><g id="baidu"><path id="path2227" class="cls-1" d="M13.82,39.5c8-1.73,6.94-11.36,6.71-13.46-.4-3.24-4.21-8.91-9.38-8.45-6.52.58-7.47,10-7.47,10C2.8,31.93,5.79,41.23,13.82,39.5M28.75,23.36c4.44,0,8-5.11,8-11.43S33.19.5,28.75.5s-8,5.1-8,11.43,3.6,11.43,8,11.43m19.15.76c5.94.78,9.75-5.57,10.51-10.37S55.35,3.37,51.15,2.41,41.67,8.19,41.2,12.6C40.62,18,42,23.36,47.9,24.12m23.54,8.07c0-2.3-1.91-9.23-9-9.23s-8,6.54-8,11.16c0,4.41.37,10.56,9.18,10.36s7.85-10,7.85-12.29m-9,20.17S53.26,45.25,47.9,37.57c-7.28-11.33-17.62-6.72-21.07-1S18,46,17.27,47,6.17,53.51,8.46,63.7s10.35,10,10.35,10a45.18,45.18,0,0,0,12.81-1,27,27,0,0,1,12.83.37s16.09,5.4,20.48-5-2.48-15.76-2.48-15.76"/><path id="path2229" class="cls-2" d="M30.18,42.45v6.84H24.61a9.19,9.19,0,0,0-7.52,6.77,11.85,11.85,0,0,0,.83,7.23,9.15,9.15,0,0,0,6.54,4.52H34.91V42.53ZM30.1,63.66H25.89a4.45,4.45,0,0,1-3.83-3.53,6.83,6.83,0,0,1,.3-3.91,4.93,4.93,0,0,1,3.23-2.86H30.1v10.3Z"/><path id="path2231" class="cls-2" d="M37.48,49.9V63.21s.21,3.32,4.89,4.52h12V49.9H49.2V63.29h-5s-1.58-.23-1.88-1.51v-12Z"/></g></svg>