<svg id="Layer_1" data-name="Layer 1" xmlns="http://www.w3.org/2000/svg" xmlns:xlink="http://www.w3.org/1999/xlink" viewBox="0 0 75 75"><defs><style>.cls-1{fill:none;}.cls-2{clip-path:url(#clip-path);}.cls-3{fill:#48ae50;}</style><clipPath id="clip-path"><rect class="cls-1" x="-13.96" y="14.22" width="102.92" height="46.57"/></clipPath></defs><g id="layer1"><g id="g268"><g class="cls-2"><g id="g270"><g id="g276"><path id="path278" class="cls-3" d="M59.47,44.83V34.68h2.31V36a3.45,3.45,0,0,1,3-1.58,3.18,3.18,0,0,1,3,1.79,3.58,3.58,0,0,1,3.3-1.79,3.49,3.49,0,0,1,3.58,3.86v6.58H72.37V38.64a1.85,1.85,0,0,0-2-2.08,2.11,2.11,0,0,0-2.11,2.25v6H65.93V38.64a1.85,1.85,0,0,0-2-2.08,2.08,2.08,0,0,0-2.11,2.25v6Zm-4.76-6.19a2.27,2.27,0,0,0-2.5-2.25,2.44,2.44,0,0,0-2.48,2.25ZM57,41.94a4.59,4.59,0,0,1-4.59,3.21,5.13,5.13,0,0,1-5.19-5.44,5.09,5.09,0,0,1,4.94-5.34c3.13,0,5,2.06,5,5.27a3.66,3.66,0,0,1-.06.77H49.67a2.71,2.71,0,0,0,2.77,2.65A2.44,2.44,0,0,0,55,41.29Zm-13.74-3.3a2.27,2.27,0,0,0-2.5-2.25,2.44,2.44,0,0,0-2.48,2.25Zm2.31,3.3A4.56,4.56,0,0,1,41,45.15a5.13,5.13,0,0,1-5.19-5.44,5.09,5.09,0,0,1,4.94-5.34c3.12,0,5,2.06,5,5.27a3.66,3.66,0,0,1-.06.77H38.25A2.71,2.71,0,0,0,41,43.06a2.44,2.44,0,0,0,2.54-1.77ZM34.7,37.08a5.46,5.46,0,0,0-.79-.06c-1.88,0-2.73,1.08-2.73,3v4.83H28.76V34.68h2.36v1.63a3.06,3.06,0,0,1,2.94-1.75,3.49,3.49,0,0,1,.64.06ZM20.65,43c1.59,0,2.69-1.35,2.69-3.31s-1.08-3.21-2.69-3.21-2.75,1.25-2.75,3.21S19,43,20.65,43m-.27,2.08c-3,0-4.9-2.35-4.9-5.39s1.94-5.32,4.86-5.32a3,3,0,0,1,3,1.63V34.68h2.36V43c0,.83.08,1.64.1,1.85H23.47a9.09,9.09,0,0,1-.11-1.46,3.17,3.17,0,0,1-3,1.73"/></g><g id="g280"><path id="path282" class="cls-3" d="M4,30.53a1.58,1.58,0,0,1,1.59,1.58A1.58,1.58,0,1,1,4,30.53"/></g><g id="g284"><path id="path286" class="cls-3" d="M7.62,42.75a4.78,4.78,0,0,1-4.8-4.1H.23a7.25,7.25,0,0,0,7.39,6.49,6.63,6.63,0,0,0,6.69-4.89L12,39.5a4.42,4.42,0,0,1-4.4,3.25"/></g><g id="g288"><path id="path290" class="cls-3" d="M13.73,33.18a6.26,6.26,0,0,0-4.52-3.29l-.55,2.3a4,4,0,0,1,3,2.41Z"/></g></g></g></g></g></svg>