<svg id="Layer_1" data-name="Layer 1" xmlns="http://www.w3.org/2000/svg" xmlns:xlink="http://www.w3.org/1999/xlink" viewBox="0 0 75 75"><defs><style>.cls-1{fill:none;}.cls-2{clip-path:url(#clip-path);}.cls-3{fill:#e94c25;}.cls-4{fill:#8a5024;}.cls-5{fill:#fac003;}.cls-6{fill:#3eaddd;}.cls-7{fill:#80ba27;}</style><clipPath id="clip-path"><rect class="cls-1" x="0.5" y="29.17" width="74.01" height="16.65"/></clipPath></defs><g id="layer1"><g class="cls-2"><g id="g19"><g id="g25"><path id="path27" class="cls-3" d="M38.81,36.82a2.31,2.31,0,0,1-4.61,0V33.41a2.31,2.31,0,0,1,4.61,0Zm1.8-5.59a3.77,3.77,0,0,0-3.62-2h0A4,4,0,0,0,34,30.36v-.8a.15.15,0,0,0-.14-.15H32a.15.15,0,0,0-.15.15V45.39a.15.15,0,0,0,.15.15h2a.15.15,0,0,0,.14-.15V40A4.17,4.17,0,0,0,37,41h0a3.78,3.78,0,0,0,3.62-2,5.2,5.2,0,0,0,.54-2.27V33.5a5.23,5.23,0,0,0-.54-2.27"/></g><g id="g29"><path id="path31" class="cls-4" d="M12.33,36.81A2.19,2.19,0,0,0,14.64,39,2.2,2.2,0,0,0,17,36.81V33.4a2.2,2.2,0,0,0-2.31-2.19,2.19,2.19,0,0,0-2.31,2.19ZM10,33.5a4.84,4.84,0,0,1,.59-2.27,4.28,4.28,0,0,1,4-2h0a4.28,4.28,0,0,1,4,2,4.84,4.84,0,0,1,.59,2.27v3.22A4.81,4.81,0,0,1,18.68,39a4.3,4.3,0,0,1-4,2h0a4.3,4.3,0,0,1-4-2A4.81,4.81,0,0,1,10,36.72Z"/></g><g id="g33"><path id="path35" class="cls-4" d="M30.1,29.56a.15.15,0,0,0-.15-.15h-2a.15.15,0,0,0-.15.15v7.26a2.31,2.31,0,0,1-4.61,0V29.56a.15.15,0,0,0-.15-.15H21a.15.15,0,0,0-.14.15v7.16A5.23,5.23,0,0,0,21.35,39,3.78,3.78,0,0,0,25,41h0a4.12,4.12,0,0,0,1.75-.36,4,4,0,0,0,1.17-.8v.8a.15.15,0,0,0,.14.15H30a.15.15,0,0,0,.15-.15Z"/></g><g id="g37"><path id="path39" class="cls-5" d="M49.16,37a2.25,2.25,0,0,1-4.49,0v-.19a2.25,2.25,0,0,1,4.49,0Zm2.16-3.62a4.25,4.25,0,0,0-2.52-3.88c-2-.82-4.61.08-5.46.42l-.16.07a.15.15,0,0,0-.08.19l.58,1.65a.15.15,0,0,0,.18.09l.06,0c.79-.4,2.84-1.07,4.1-.5a2.07,2.07,0,0,1,1.13,2v.32a4.33,4.33,0,0,0-2.62-.85h0a3.82,3.82,0,0,0-3.63,1.92A4.83,4.83,0,0,0,42.34,37h0a4.85,4.85,0,0,0,.54,2.14A3.84,3.84,0,0,0,46.51,41h0a4.28,4.28,0,0,0,2.69-.91v.55a.15.15,0,0,0,.15.15h1.81a.15.15,0,0,0,.14-.15V33.39"/></g><g id="g41"><path id="path43" class="cls-6" d="M70.89,33.42a2.32,2.32,0,0,1-4.62,0v-.14a2.32,2.32,0,0,1,4.62,0Zm3.46-4.17a3.07,3.07,0,0,0-2.47,1A4.77,4.77,0,0,0,68.6,29.2h0a4.35,4.35,0,0,0-4,1.94,4.47,4.47,0,0,0-.6,2.16v.11a4.47,4.47,0,0,0,.6,2.16,3.58,3.58,0,0,0,1.15,1.19,3.24,3.24,0,0,0-1.66,3v.87a.15.15,0,0,0,.14.15h6.72a1.29,1.29,0,0,1,1.32,1,1.87,1.87,0,0,1-1.14,2l-.07,0a.16.16,0,0,0-.06.2l.9,1.64a.15.15,0,0,0,.2.06l.61-.39a2.81,2.81,0,0,0,.41-.33,3.91,3.91,0,0,0,1.14-3.71,3.22,3.22,0,0,0-3.31-2.51H66.26c.25-1.4,1.88-1.37,2.08-1.36h.26a4.11,4.11,0,0,0,4.62-4.1V33.3a4.54,4.54,0,0,0-.37-1.72,2.32,2.32,0,0,1,1.49-.37h0a.15.15,0,0,0,.15-.14V29.42h0a.15.15,0,0,0-.15-.16"/></g><g id="g45"><path id="path47" class="cls-4" d="M9.23,38.57l-1.81-.9a.14.14,0,0,0-.19.06v0h0A2.13,2.13,0,0,1,5.14,39a2.19,2.19,0,0,1-2.31-2.18V33.4a2.19,2.19,0,0,1,2.31-2.19,2.14,2.14,0,0,1,2.09,1.26.16.16,0,0,0,.15.11l.07,0,1.77-.92a.15.15,0,0,0,.06-.2h0c0-.06-.06-.13-.1-.2a4.3,4.3,0,0,0-4-2h0a4.3,4.3,0,0,0-4,2A4.84,4.84,0,0,0,.5,33.5v3.22A4.81,4.81,0,0,0,1.09,39a4.3,4.3,0,0,0,4,2h0a4.3,4.3,0,0,0,4-2l.11-.22a.15.15,0,0,0-.06-.2"/></g><g id="g49"><path id="path51" class="cls-7" d="M61.88,31.23a3.79,3.79,0,0,0-3.63-2h0a4,4,0,0,0-2.91,1.16v-.79a.15.15,0,0,0-.15-.15H53.28a.15.15,0,0,0-.14.15v11.1a.15.15,0,0,0,.14.15h2a.15.15,0,0,0,.14-.15V33.28a2.32,2.32,0,0,1,4.62.12v7.26a.15.15,0,0,0,.14.15h2.05a.15.15,0,0,0,.15-.15V33.49a5.2,5.2,0,0,0-.54-2.26"/></g></g></g></g></svg>