<svg id="Layer_1" data-name="Layer 1" xmlns="http://www.w3.org/2000/svg" viewBox="0 0 75 75"><defs><style>.cls-1{fill:#20a637;}.cls-2{fill:#010101;}</style></defs><path class="cls-1" d="M27.17,28A10.37,10.37,0,1,1,37.54,38.34,10.34,10.34,0,0,1,27.17,28"/><path class="cls-1" d="M37.5.49A27.52,27.52,0,0,0,26.82,53.42a5.18,5.18,0,0,0,6.78-2.75,5.9,5.9,0,0,0,.31-1,5.15,5.15,0,0,0-3.09-5.78h0a17.28,17.28,0,1,1,13.36,0h0a5.15,5.15,0,0,0,2,9.93,5.24,5.24,0,0,0,2-.4A27.51,27.51,0,0,0,37.5.48"/><path class="cls-2" d="M32.16,64.65a2.82,2.82,0,1,0-2.81,2.79,2.67,2.67,0,0,0,2.81-2.79m-8.36,0a5.25,5.25,0,0,1,5.57-5.2,5.21,5.21,0,1,1,0,10.4,5.26,5.26,0,0,1-5.57-5.2M34,72h1.5c.8,0,1.08-.3,1.08-1V59.46h2.76V71c0,2.43-1,3.47-3.62,3.47H34V72ZM19.36,65.22c0,1.22-1.24,2.19-2.81,2.19a2.63,2.63,0,0,1-2.89-2.79,2.71,2.71,0,0,1,3-2.72,2.55,2.55,0,0,1,2.71,2.15v1.16Zm.11-5.75v1.16h0a4.49,4.49,0,0,0-3.3-1.16,5.09,5.09,0,0,0-5.26,5.15,5.15,5.15,0,0,0,5.35,5.22,4.24,4.24,0,0,0,3.21-1.2h0v1A2.47,2.47,0,0,1,16.77,72a4.22,4.22,0,0,1-3.24-1.18l-1.8,1.72a6.91,6.91,0,0,0,5.09,2c3.16,0,5.31-2.11,5.31-4.92V59.46H19.47ZM46.41,61.7A2.36,2.36,0,0,1,49,63.62h-5.3c.15-1.16,1.18-1.92,2.67-1.92m.28,6c-1.65,0-2.95-1.06-3-2.1h8v-.77a5.1,5.1,0,0,0-5.37-5.3A5.11,5.11,0,0,0,41,64.7c0,3.12,2.37,5.18,5.83,5.18a5.7,5.7,0,0,0,4.45-2l-1.87-1.3a3.56,3.56,0,0,1-2.69,1.06m6.65-10.83H56l0,6.84h0l4.46-4.17h3.58L59.5,63.85l4.61,6.07H60.92l-3.16-4.39h0L56,67.11v2.81H53.37Z"/></svg>