<svg id="Layer_1" data-name="Layer 1" xmlns="http://www.w3.org/2000/svg" viewBox="0 0 75 75"><defs><style>.cls-1{fill:#517cbe;}.cls-2{fill:#32a853;}.cls-3{fill:#fbbc0c;}.cls-4{fill:#e84436;}</style></defs><g id="google"><path id="path1512" class="cls-1" d="M74.13,38.34a42.79,42.79,0,0,0-.6-7.08H38.3V45.33H58.47A17.35,17.35,0,0,1,51,56.49v9.36H63c7-6.52,11.11-16.13,11.11-27.51Z"/><path id="path1514" class="cls-2" d="M38.3,74.92c10.1,0,18.55-3.37,24.72-9.07L51,56.49A22.56,22.56,0,0,1,17.31,44.64H4.9v9.64A37.36,37.36,0,0,0,38.3,74.92Z"/><path id="path1516" class="cls-3" d="M17.31,44.64a21.7,21.7,0,0,1-1.19-7.14,22.51,22.51,0,0,1,1.19-7.14V20.72H4.9a36.95,36.95,0,0,0,0,33.56Z"/><path id="path1518" class="cls-4" d="M38.3,14.89A20.31,20.31,0,0,1,52.64,20.5L63.31,9.84A35.79,35.79,0,0,0,38.3.08,37.36,37.36,0,0,0,4.9,20.72l12.41,9.64a22.34,22.34,0,0,1,21-15.47Z"/></g></svg>