<svg id="Layer_1" data-name="Layer 1" xmlns="http://www.w3.org/2000/svg" viewBox="0 0 75 75"><defs><style>.cls-1{fill:#ffe91a;}.cls-2{fill:#010101;}</style></defs><rect class="cls-1" width="75" height="75" rx="7.94"/><path class="cls-2" d="M37.5,10.55C20.67,10.55,7,21.3,7,34.57c0,8.58,5.7,16.1,14.28,20.35-.46,1.61-3,10.36-3.1,11,0,0-.06.51.28.71a.88.88,0,0,0,.72,0c1-.13,11.12-7.27,12.88-8.5a39.84,39.84,0,0,0,5.41.37c16.83,0,30.47-10.75,30.47-24s-13.64-24-30.47-24Z"/><path class="cls-1" d="M20.65,43a1.72,1.72,0,0,1-1.75-1.68V30.83H16.15a1.72,1.72,0,0,1,0-3.44h9a1.72,1.72,0,1,1,0,3.44H22.41V41.28A1.73,1.73,0,0,1,20.65,43Zm15.42,0a1.42,1.42,0,0,1-1.46-.77l-.88-2.28H28.37l-.87,2.28a1.43,1.43,0,0,1-1.46.77,2.75,2.75,0,0,1-1.12-.24c-.48-.22-1-.84-.41-2.49l4.2-11.07a2.67,2.67,0,0,1,2.34-1.74,2.68,2.68,0,0,1,2.35,1.74l4.2,11.06c.54,1.66.07,2.28-.41,2.5a2.75,2.75,0,0,1-1.12.24Zm-3.26-6.17-1.76-5-1.75,5Zm7.62,5.94a1.64,1.64,0,0,1-1.68-1.61V29.15a1.79,1.79,0,0,1,3.58,0V39.48h3.74a1.61,1.61,0,1,1,0,3.22Zm9.77.23a1.75,1.75,0,0,1-1.76-1.75v-12a1.76,1.76,0,1,1,3.51,0v3.78L56.86,28a1.37,1.37,0,0,1,1-.39,1.73,1.73,0,0,1,1.21.52,1.77,1.77,0,0,1,.52,1.12,1.39,1.39,0,0,1-.39,1.07l-4,4,4.32,5.73a1.76,1.76,0,1,1-2.8,2.12l-4.13-5.46-.61.61v3.84a1.75,1.75,0,0,1-1.75,1.75Z"/></svg>