<svg id="Layer_1" data-name="Layer 1" xmlns="http://www.w3.org/2000/svg" xmlns:xlink="http://www.w3.org/1999/xlink" viewBox="0 0 75 75"><defs><style>.cls-1{fill:#272f6a;}.cls-2{fill:url(#linear-gradient);}.cls-3{fill:url(#linear-gradient-2);}.cls-4{fill:url(#linear-gradient-3);}</style><linearGradient id="linear-gradient" x1="0.45" y1="69.67" x2="13.02" y2="69.77" gradientTransform="matrix(5.57, 0, 0, -5.57, -0.14, 417.73)" gradientUnits="userSpaceOnUse"><stop offset="0" stop-color="#fbb811"/><stop offset="0.34" stop-color="#f0810d"/><stop offset="0.57" stop-color="#e94274"/><stop offset="0.78" stop-color="#c94994"/><stop offset="0.93" stop-color="#ae5099"/><stop offset="1" stop-color="#a6539b"/></linearGradient><linearGradient id="linear-gradient-2" x1="3.98" y1="65.56" x2="16.8" y2="72.65" gradientTransform="matrix(5.57, 0, 0, -5.57, -0.14, 417.73)" gradientUnits="userSpaceOnUse"><stop offset="0" stop-color="#e51b42"/><stop offset="1" stop-color="#e51b42" stop-opacity="0"/></linearGradient><linearGradient id="linear-gradient-3" x1="62.06" y1="67.83" x2="68.32" y2="72.87" gradientTransform="translate(371.5 414.7) rotate(180) scale(5.51)" gradientUnits="userSpaceOnUse"><stop offset="0" stop-color="#ec6607"/><stop offset="1" stop-color="#f08214"/></linearGradient></defs><g id="g1006"><g id="g35"><path id="path33" class="cls-1" d="M1.44,58.48H4.2V71.77H9V74.4H1.45V58.48"/></g><g id="g41"><path id="path39" class="cls-1" d="M15.36,62.47a4.69,4.69,0,0,1,3.76,1.8V62.71h2.57V74.42H19.12V72.85a4.68,4.68,0,0,1-3.76,1.81,6.11,6.11,0,0,1,0-12.19m.47,2.34a3.76,3.76,0,1,0,3.47,3.75,3.5,3.5,0,0,0-3.47-3.75"/></g><g id="g47"><path id="path45" class="cls-1" d="M23.7,72.39l6.14-7.34H23.79V62.71h9.38v2.06l-6.12,7.31h6.26v2.34H23.7v-2"/></g><g id="g53"><path id="path51" class="cls-1" d="M39.86,62.47a4.66,4.66,0,0,1,3.75,1.8V62.71h2.58V74.42H43.61V72.85a4.64,4.64,0,0,1-3.75,1.81,6.11,6.11,0,0,1,0-12.19m.47,2.34a3.76,3.76,0,1,0,3.47,3.75,3.5,3.5,0,0,0-3.47-3.75"/></g><g id="g59"><path id="path57" class="cls-1" d="M53.56,62.47a4.67,4.67,0,0,1,3.74,1.8V57.54h2.58V74.42H57.3V72.85a4.65,4.65,0,0,1-3.74,1.81,6.11,6.11,0,0,1,0-12.19M54,64.81a3.76,3.76,0,1,0,3.47,3.75A3.49,3.49,0,0,0,54,64.81"/></g><g id="g65"><path id="path63" class="cls-1" d="M67.24,62.47A4.69,4.69,0,0,1,71,64.27V62.71h2.57V74.42H71V72.85a4.67,4.67,0,0,1-3.75,1.81,6.11,6.11,0,0,1,0-12.19m.47,2.34a3.76,3.76,0,1,0,3.47,3.75,3.49,3.49,0,0,0-3.47-3.75"/></g></g><g id="g942"><g id="g71"><path id="path69" class="cls-2" d="M37.52,58.18a2.9,2.9,0,0,1-1.44-.38c-3.74-2.16-31.42-19.52-32.47-20a2.5,2.5,0,0,1-1.43-2V11.4A2.65,2.65,0,0,1,3.37,9.13L3.57,9C6.25,7.36,15.21,1.89,16.63,1.1A2.17,2.17,0,0,1,17.71.8a2.11,2.11,0,0,1,1,.26S31.27,9.23,33.19,10a10,10,0,0,0,4.3.91A9.61,9.61,0,0,0,42.3,9.69c1.88-1,13.86-8.59,14-8.59a1.89,1.89,0,0,1,1-.27,2,2,0,0,1,1.07.3c1.63.9,12.75,7.7,13.22,8a2.61,2.61,0,0,1,1.25,2.24V35.72a2.48,2.48,0,0,1-1.44,2c-1,.58-28.64,17.94-32.45,20.05a2.92,2.92,0,0,1-1.43.41"/></g><g id="g79"><path id="path77" class="cls-3" d="M37.37,58.18h.15A2.89,2.89,0,0,0,39,57.8c3.74-2.16,31.41-19.52,32.45-20a2.49,2.49,0,0,0,1.44-2V11.4a2.57,2.57,0,0,0-.28-1.19L37.37,29.53V58.18"/></g><g id="g970"><path id="path968" class="cls-4" d="M37.25,57.83h-.14a2.72,2.72,0,0,1-1.42-.37C32,55.32,4.62,38.15,3.58,37.63a2.48,2.48,0,0,1-1.42-2V11.55a2.61,2.61,0,0,1,.27-1.17L37.25,29.49V57.83"/></g></g></svg>