<svg id="Layer_1" data-name="Layer 1" xmlns="http://www.w3.org/2000/svg" xmlns:xlink="http://www.w3.org/1999/xlink" viewBox="0 0 75 75"><defs><style>.cls-1{fill:#3a75ba;}.cls-2{fill:url(#linear-gradient);}.cls-3{fill:url(#linear-gradient-2);}</style><linearGradient id="linear-gradient" x1="-721.66" y1="107.23" x2="-695.71" y2="105.92" gradientTransform="matrix(1.98, 0, 0, -1.98, 1444.4, 248.41)" gradientUnits="userSpaceOnUse"><stop offset="0" stop-color="#2f62ac"/><stop offset="0.4" stop-color="#2f62ac"/><stop offset="0.83" stop-color="#346bb3"/><stop offset="1" stop-color="#3b76bb"/></linearGradient><linearGradient id="linear-gradient-2" x1="-724.4" y1="100.88" x2="-724.4" y2="110.45" gradientTransform="matrix(1.98, 0, 0, -1.98, 1444.4, 248.41)" gradientUnits="userSpaceOnUse"><stop offset="0" stop-color="#3b76bb"/><stop offset="1" stop-color="#2f62ac"/></linearGradient></defs><g id="meta"><path id="Logo0" class="cls-1" d="M8.27,45.4a12.43,12.43,0,0,0,1.44,6.36A4.92,4.92,0,0,0,14,54.22c2.1,0,4-.52,7.72-5.64,3-4.11,6.47-9.87,8.82-13.48l4-6.12c2.77-4.25,6-9,9.64-12.18,3-2.61,6.23-4.07,9.49-4.07,5.46,0,10.67,3.17,14.65,9.11,4.36,6.5,6.48,14.7,6.48,23.15,0,5-1,8.72-2.68,11.64A11.18,11.18,0,0,1,62,62.27V54.22c4.57,0,5.71-4.2,5.71-9,0-6.85-1.6-14.45-5.12-19.89-2.49-3.85-5.73-6.2-9.29-6.2-3.85,0-7,2.9-10.43,8.08C41,30,39.08,33.3,37,37.09L34.6,41.25c-4.72,8.37-5.91,10.27-8.27,13.42-4.14,5.51-7.67,7.6-12.32,7.6-5.52,0-9-2.39-11.17-6A21.73,21.73,0,0,1,.21,45.11Z"/><path id="Logo1" class="cls-2" d="M6.56,22.41c3.7-5.7,9-9.68,15.14-9.68a16.31,16.31,0,0,1,10.73,4.05c4,3.28,8.31,8.68,13.65,17.59L48,37.56c4.62,7.71,7.26,11.67,8.8,13.54,2,2.41,3.37,3.12,5.17,3.12,4.57,0,5.71-4.2,5.71-9L74.79,45c0,5-1,8.72-2.68,11.64A11.18,11.18,0,0,1,62,62.27a12.61,12.61,0,0,1-9.51-3.79,53.07,53.07,0,0,1-7.68-10.3L38.1,37a76.83,76.83,0,0,0-8.22-11.68c-1.92-2-4.38-4.5-8.31-4.5-3.18,0-5.89,2.24-8.15,5.65Z"/><path id="Logo2" class="cls-3" d="M21.57,20.83c-3.18,0-5.89,2.24-8.15,5.65-3.19,4.83-5.15,12-5.15,18.92a12.43,12.43,0,0,0,1.44,6.36L2.84,56.28A21.73,21.73,0,0,1,.21,45.11a42.69,42.69,0,0,1,6.35-22.7c3.7-5.7,9-9.68,15.14-9.68Z"/></g></svg>